<?xml version="1.0" encoding="UTF-8"?>
<svg width="1360px" height="1024px" viewBox="0 0 1360 1024" version="1.1" xmlns="http://www.w3.org/2000/svg" xmlns:xlink="http://www.w3.org/1999/xlink">
    <!-- Generator: Sketch 52.2 (67145) - http://www.bohemiancoding.com/sketch -->
    <title>Logo@1x</title>
    <desc>Created with Sketch.</desc>
    <g id="Logo" stroke="none" stroke-width="1" fill="none" fill-rule="evenodd">
        <path d="M0,0 L1360,0 L1360,1024 L688,1024 L0,0 Z M878.766043,131.447915 L878.766043,346.994828 C878.766043,387.382557 854.225497,408.353478 824.459221,408.353478 C799.471866,408.353478 785.460488,393.667029 785.460488,369.272183 L785.460488,131.447915 L714.451712,131.447915 L714.451712,382.54049 C714.451712,448.56636 751.381516,475.58379 801.584488,475.58379 C837.640104,475.58379 868.887654,459.488921 887.648814,430.198593 L887.648814,471.411947 L949.774812,471.411947 L949.774812,131.447915 L878.766043,131.447915 Z M1077.34389,411.068331 L1077.34389,131.447915 L1006.33511,131.447915 L1006.33511,471.411947 L1190.87244,471.397378 L1190.87244,411.068331 L1077.34389,411.068331 Z M835.109805,544.637768 C767.08786,544.59406 726.263037,580.10573 726.263037,640.415345 L726.263037,655.160071 L788.233627,655.160071 L788.233627,640.614469 C788.233627,614.27211 803.128907,599.347691 834.235618,599.347691 C861.724141,599.347691 879.844222,610.789908 879.844222,640.939862 L879.844222,685.552857 L818.009618,690.739733 C752.377134,696.32971 718.696409,724.624428 718.696409,778.630141 L718.696409,804.559684 C718.696409,860.673172 757.224048,892.552085 812.584764,892.552085 C847.664194,892.552085 873.161496,880.784475 889.028102,858.992783 L889.028102,888.778489 L950.84813,888.778489 L950.84813,640.862147 C950.84813,577.02176 905.84175,544.681469 835.109805,544.637761 Z M879.795646,777.7511 C879.844215,811.587234 862.549759,834.316259 828.81561,834.316259 C801.764188,834.316259 786.674638,822.305818 786.674638,799.295107 L786.674638,774.73513 C786.674638,754.327573 797.378645,740.058795 828.52421,737.154533 L879.844208,732.812705 L879.844208,765.099573 L879.795638,765.099573 L879.795646,777.7511 Z M1179.48366,713.944713 C1209.35678,701.293193 1225.53907,678.505891 1225.53907,646.1656 L1225.53907,631.051772 C1225.53907,578.464194 1185.06393,548.814472 1108.16406,548.814472 L1003.55228,548.814472 L1003.55228,888.778504 L1114.94878,888.778504 C1193.43676,888.778504 1232.4792,857.370685 1232.4792,801.330043 L1232.4792,781.398441 C1232.4792,747.897416 1214.70879,725.246098 1179.48366,713.944721 Z M1107.91152,600.955249 C1136.47336,600.955249 1152.99561,614.28184 1152.99561,637.389682 L1152.99561,652.610356 C1152.99561,675.91246 1137.6001,690.676609 1108.42633,690.734886 L1074.53677,690.807733 L1074.53677,600.960096 L1107.91152,600.955249 Z M1159.40151,796.735669 C1159.40151,821.737593 1143.84573,836.108356 1111.50543,836.108356 L1074.53678,836.108356 L1074.53678,738.752368 L1111.50543,738.669806 C1143.84573,738.611529 1159.40151,752.870592 1159.40151,777.124598 L1159.40151,796.735669 Z" id="Combined-Shape" fill="#16779D"></path>
    </g>
</svg>
