<svg xmlns="http://www.w3.org/2000/svg" viewBox="0 0 1360 1024">
  <path fill="#16779D" fill-rule="evenodd" d="M0 0h1360v1024H688L0 0zm878.766043 131.447915v215.546913c0 40.387729-24.540546 61.35865-54.306822 61.35865-24.987355 0-38.998733-14.686449-38.998733-39.081295V131.447915h-71.008776V382.54049c0 66.02587 36.929804 93.0433 87.132776 93.0433 36.055616 0 67.303166-16.094869 86.064326-45.385197v41.213354h62.125998V131.447915h-71.008769zm198.577847 279.620416V131.447915h-71.00878v339.964032l184.53733-.014569v-60.329047h-113.52855zM835.109805 544.637768c-68.021945-.043708-108.846768 35.467962-108.846768 95.777577v14.744726h61.97059v-14.545602c0-26.342359 14.89528-41.266778 46.001991-41.266778 27.488523 0 45.608604 11.442217 45.608604 41.592171v44.612995l-61.834604 5.186876c-65.632484 5.589977-99.313209 33.884695-99.313209 87.890408v25.929543c0 56.113488 38.527639 87.992401 93.888355 87.992401 35.07943 0 60.576732-11.76761 76.443338-33.559302v29.785706h61.820028V640.862147c0-63.840387-45.00638-96.180678-115.738325-96.224386zM879.795646 777.7511c.048569 33.836134-17.245887 56.565159-50.980036 56.565159-27.051422 0-42.140972-12.010441-42.140972-35.021152V774.73513c0-20.407557 10.704007-34.676335 41.849572-37.580597l51.319998-4.341828v32.286868h-.04857l.000008 12.651527zm299.688014-63.806387c29.87312-12.65152 46.05541-35.438822 46.05541-67.779113v-15.113828c0-52.587578-40.47514-82.2373-117.37501-82.2373h-104.61178v339.964032h111.3965c78.48798 0 117.53042-31.407819 117.53042-87.448461v-19.931602c0-33.501025-17.77041-56.152343-52.99554-67.45372zm-71.57214-112.989464c28.56184 0 45.08409 13.326591 45.08409 36.434433v15.220674c0 23.302104-15.39551 38.066253-44.56928 38.12453l-33.88956.072847v-89.847637l33.37475-.004847zm51.48999 195.78042c0 25.001924-15.55578 39.372687-47.89608 39.372687h-36.96865v-97.355988l36.96865-.082562c32.3403-.058277 47.89608 14.200786 47.89608 38.454792v19.611071z"/>
</svg>
