<svg xmlns="http://www.w3.org/2000/svg" viewBox="0 0 3787 1024" height="24" preserveAspectRatio="xMidYMid">
  <g fill="none" fill-rule="evenodd">
    <path class="logo white" fill="#057FAB" d="M0 0h1360v1024H688L0 0zm878.766043 131.447915v215.546913c0 40.387729-24.540546 61.35865-54.306822 61.35865-24.987355 0-38.998733-14.686449-38.998733-39.081295V131.447915h-71.008776V382.54049c0 66.02587 36.929804 93.0433 87.132776 93.0433 36.055616 0 67.303166-16.094869 86.064326-45.385197v41.213354h62.125998V131.447915h-71.008769zm198.577847 279.620416V131.447915h-71.00878v339.964032l184.53733-.014569v-60.329047h-113.52855zM835.109805 544.637768c-68.021945-.043708-108.846768 35.467962-108.846768 95.777577v14.744726h61.97059v-14.545602c0-26.342359 14.89528-41.266778 46.001991-41.266778 27.488523 0 45.608604 11.442217 45.608604 41.592171v44.612995l-61.834604 5.186876c-65.632484 5.589977-99.313209 33.884695-99.313209 87.890408v25.929543c0 56.113488 38.527639 87.992401 93.888355 87.992401 35.07943 0 60.576732-11.76761 76.443338-33.559302v29.785706h61.820028V640.862147c0-63.840387-45.00638-96.180678-115.738325-96.224386zM879.795646 777.7511c.048569 33.836134-17.245887 56.565159-50.980036 56.565159-27.051422 0-42.140972-12.010441-42.140972-35.021152V774.73513c0-20.407557 10.704007-34.676335 41.849572-37.580597l51.319998-4.341828v32.286868h-.04857l.000008 12.651527zm299.688014-63.806387c29.87312-12.65152 46.05541-35.438822 46.05541-67.779113v-15.113828c0-52.587578-40.47514-82.2373-117.37501-82.2373h-104.61178v339.964032h111.3965c78.48798 0 117.53042-31.407819 117.53042-87.448461v-19.931602c0-33.501025-17.77041-56.152343-52.99554-67.45372zm-71.57214-112.989464c28.56184 0 45.08409 13.326591 45.08409 36.434433v15.220674c0 23.302104-15.39551 38.066253-44.56928 38.12453l-33.88956.072847v-89.847637l33.37475-.004847zm51.48999 195.78042c0 25.001924-15.55578 39.372687-47.89608 39.372687h-36.96865v-97.355988l36.96865-.082562c32.3403-.058277 47.89608 14.200786 47.89608 38.454792v19.611071z"/>
    <path class="logo white" fill="#000" fill-rule="nonzero" d="M1597.743 130.999799h9.1468v114.920004c0 42.4008-22.6928 68.788202-66.391 68.788202-43.6982 0-66.5002-26.150801-66.5002-68.788202V130.999799l9.1468.000004v114.92c0 36.061999 17.9582 60.553998 57.3534 60.553998 39.4706 0 57.2442-24.120201 57.2442-60.554002v-114.92zm101.27 50.616806c28.67021 0 43.84381 13.465398 43.84381 43.568198v87.885201h-8.45521v-87.508202c0-25.2122-11.466-36.444199-35.75-36.444199-26.156 0-45.1906 16.288998-45.227 45.3336v7.168202h-.0182v71.450599h-8.4552v-130h7.2228v27.4664c7.7974-18.587402 25.1862-28.919803 46.839-28.919803v.000004zm170.7498-50.538805l8.4552-.000012v182h-7.7064v-32.876999c-7.5062 22.198801-24.8326 34.520201-45.734 34.416202-31.0414-.13-52.1352-22.5264-52.1352-66.583399v-.26c0-44.961798 21.0938-66.247997 52.1352-66.247997 20.3814 0 37.4166 11.198202 44.9852 32.604003V131.0778zm0 119.399787v-5.257205c0-36.407799-19.2686-56.024799-44.4756-56.024799-25.9142 0-43.8048 18.423601-43.8048 58.578001v.26c0 39.2314 17.8906 58.822402 43.8048 58.913403 25.207.091002 44.4756-20.628399 44.4756-56.4694zM2005.28 270.17l.0234-.314598h7.956l-.05199.774799c-.6162 21.764602-17.92441 44.077804-48.14941 44.077804-34.4916 0-56.2536-23.527402-56.2536-66.903202v-.278202c0-46.911798 20.8962-66.0764 53.3364-66.0764 29.939 0 51.4358 18.046601 51.4982 63.8872l.0078 3.77-96.1506.0078c.403 39.543399 19.9264 58.1672 47.5618 58.1672 25.7816 0 39.507-18.9722 40.222-37.112401zm-43.3706-81.296798c-25.2044 0-42.81419 13.598001-44.3144 53.1128h87.52381c-.1976-37.965202-17.9712-53.1128-43.20941-53.1128zm131.5314-7.217607c4.3446 0 8.1094.291199 11.5882.894401v7.5478c-3.4346-.673399-7.2436-1.0114-11.4842-1.0114-24.8144 0-40.0972 20.420398-40.5184 49.358399v74.625201h-8.4552v-130h7.2228v32.6872c5.4756-20.896198 19.6508-34.101597 41.6468-34.101597v-.000004zm123.3518 1.450805l7.7454-.000004v131.505398c0 30.8828-13.8632 52.096199-52.7878 52.096199-35.23 0-50.1904-20.456798-50.5986-42.343596l-.0078-.314602h8.0366l.0078.314602c.3146 19.086601 13.6136 34.6736 42.7154 34.6736 33.3476 0 44.1428-18.1636 44.1792-44.1636v-33.643999c-7.5686 21.395399-24.6038 33.2592-44.9852 33.155201-31.0414-.127401-52.1352-22.487401-52.1352-66.466399v-.26c0-44.8942 21.0938-66.133601 52.1352-66.133601 20.865 0 38.1784 11.593399 45.695 33.727201v-32.1464zm-45.1854 123.640394c25.207.091002 44.4756-20.599799 44.4756-56.386199v-5.254601c0-36.355801-19.2686-55.949401-44.4756-55.949401-25.9142 0-43.80479 18.392401-43.80479 58.502603v.26c0 39.176798 17.89059 58.733998 43.80479 58.827598zm137.3736-125.091199c4.3446 0 8.1094.291199 11.5882.894401v7.5478c-3.4346-.673399-7.2436-1.0114-11.4842-1.0114-24.8144 0-40.0972 20.420398-40.5184 49.358399v74.625201h-8.4552v-130h7.2228v32.6872c5.4756-20.896198 19.6508-34.101597 41.6468-34.101597v-.000004zm74.919-.129996l-.00001-.002602c28.5246 0 44.941 9.4328 44.941 39.964598l-.0078 91.579798h-7.7142v-22.216999c-7.462 15.524602-24.35679 23.647003-44.3976 23.579405-27.38839-.1092-43.44339-13.6292-43.44339-36.425998v-.26c0-22.726601 16.6842-32.702799 40.5938-34.4058l46.514-3.226601v-18.628999c0-25.550201-12.857-32.4558-36.3922-32.4558-25.4514 0-38.2668 11.3828-38.2668 33.589401v.7436h-7.8234v-.7436c0-27.227201 16.1252-41.090403 45.9966-41.090403zm-5.75381 125.312197c22.21179.091001 42.2214-11.697398 42.2396-35.898198v-24.0136l-45.734 3.0836c-19.565 1.326001-32.5182 9.924203-32.5182 27.131001v.26c0 18.7278 12.818 29.325399 36.0126 29.437197zM2555.6428 131.0778l8.4552-.000012v182h-7.7064v-32.876999c-7.5062 22.198801-24.8326 34.520201-45.734 34.416202-31.0414-.13-52.1352-22.5264-52.1352-66.583399v-.26c0-44.961798 21.0938-66.247997 52.1352-66.247997 20.3814 0 37.4166 11.198202 44.9852 32.604003V131.0778zm0 119.399787v-5.257205c0-36.407799-19.2686-56.024799-44.4756-56.024799-25.9142 0-43.8048 18.423601-43.8048 58.578001v.26c0 39.2314 17.8906 58.822402 43.8048 58.913403 25.207.091002 44.4756-20.628399 44.4756-56.4694zM2688.0816 183.07h8.45519v130h-7.2228v-28.987401c-6.9524 19.377799-24.5778 30.443399-46.84679 30.443399-28.6702 0-43.8438-13.465399-43.8438-43.568198V183.07h8.4552v87.5108c0 25.209602 11.466 36.441601 35.75 36.441601 26.156 0 45.1906-16.288998 45.227-45.3336l.026-78.618801zm88.9382-1.544401l-.00001-.002602c28.5246 0 44.941 9.4328 44.941 39.964598l-.0078 91.579798h-7.7142v-22.216999c-7.462 15.524602-24.35679 23.647003-44.3976 23.579405-27.38839-.1092-43.44339-13.6292-43.44339-36.425998v-.26c0-22.726601 16.6842-32.702799 40.5938-34.4058l46.514-3.226601v-18.628999c0-25.550201-12.857-32.4558-36.3922-32.4558-25.4514 0-38.2668 11.3828-38.2668 33.589401v.7436h-7.8234v-.7436c0-27.227201 16.1252-41.090403 45.9966-41.090403zm-5.75381 125.312197c22.21179.091001 42.2214-11.697398 42.2396-35.898198v-24.0136l-45.734 3.0836c-19.565 1.326001-32.5182 9.924203-32.5182 27.131001v.26c0 18.7278 12.818 29.325399 36.0126 29.437197zm125.73601.117003c5.798 0 11.8586-.616199 18.4756-1.663999v7.7714c-7.1448 1.042599-13.728 1.609397-19.6846 1.609397-24.284 0-35.724-9.6642-35.724-35.050599v-88.972h-16.939V183.07h16.939v-28.066999h8.4526V183.07h46.5712v7.578998h-46.5712v88.207599c0 20.891002 8.775 28.098202 28.4804 28.098202zM3034.62 270.17l.0234-.314598h7.956l-.05199.774799c-.6162 21.764602-17.92441 44.077804-48.14941 44.077804-34.4916 0-56.2536-23.527402-56.2536-66.903202v-.278202c0-46.911798 20.8962-66.0764 53.3364-66.0764 29.939 0 51.4358 18.046601 51.4982 63.8872l.0078 3.77-96.1506.0078c.403 39.543399 19.9264 58.1672 47.5618 58.1672 25.7816 0 39.507-18.9722 40.222-37.112401zm-43.3706-81.296798c-25.2044 0-42.81419 13.598001-44.3144 53.1128h87.52381c-.1976-37.965202-17.9712-53.1128-43.20941-53.1128zM1483.1468 592.804799h88.361V601H1474V419h9.1468v173.804799zM1604.2366 419v21.6086h-8.814L1595.4148 419h8.8218zm-.1716 52v130h-8.45521V471h8.45521zm89.8066-1.453395c28.6702 0 43.8438 13.465398 43.8438 43.568198v87.885201h-8.4552v-87.508202c0-25.2122-11.466-36.444199-35.75-36.444199-26.156 0-45.1906 16.288998-45.227 45.3336v7.168202h-.0182v71.450599h-8.45521v-130h7.2228v27.4664c7.79741-18.587402 25.18621-28.919803 46.83901-28.919803v.000004zm171.45959 1.489795l7.74541-.000004v131.505398c0 30.8828-13.8632 52.096199-52.7878 52.096199-35.23 0-50.1904-20.456798-50.5986-42.343596l-.0078-.314602h8.0366l.0078.314602c.3146 19.086601 13.6136 34.6736 42.7154 34.6736 33.34759 0 44.1428-18.1636 44.1792-44.1636v-33.643999c-7.5686 21.395399-24.60381 33.2592-44.98521 33.155201-31.0414-.127401-52.1352-22.487401-52.1352-66.466399v-.26c0-44.8942 21.0938-66.133601 52.1352-66.133601 20.865 0 38.1784 11.593399 45.695 33.727201v-32.1464zm-45.18539 123.640394c25.207.091002 44.4756-20.599799 44.4756-56.386199v-5.254601c0-36.355801-19.2686-55.949401-44.4756-55.949401-25.9142 0-43.8048 18.392401-43.8048 58.502603v.26c0 39.176798 17.8906 58.733998 43.8048 58.827598zM1997.0602 471h8.45519v130h-7.2228v-28.987401c-6.9524 19.377799-24.5778 30.443399-46.8468 30.443399-28.6702 0-43.8438-13.465399-43.8438-43.568198V471h8.4552v87.5108c0 25.209602 11.466 36.441601 35.75 36.441601 26.156 0 45.19061-16.288998 45.22701-45.3336L1997.0602 471zm52.8164-52v21.6086h-8.814L2041.0548 419h8.8218zm-.1716 52v130h-8.45521V471h8.45521zm123.23479 37.286601l-8.12239-.000012v-.26c0-20.225398-11.9392-31.07-37.3828-31.07-21.6632 0-35.9866 10.166002-35.9866 25.643801v.26c0 43.771002 83.7564 14.092003 83.7564 62.608005v.26c0 23.496199-19.0034 36.745801-47.3382 36.8186-31.2936.0728-48.2118-16.491802-48.2118-39.522602v-.4914l8.125.0078v.26c0 19.099601 14.378 32.318 40.0868 32.245201 22.8098-.075399 38.4982-10.355797 38.4982-28.932796v-.26c0-40.580801-83.7954-10.608001-83.7954-62.9928v-.26c0-20.714199 19.1126-33.144799 44.8656-33.144799 30.1548 0 45.50519 14.508001 45.50519 38.261601v.569401zm73.60081 86.598198c5.798 0 11.8586-.616199 18.4756-1.663999v7.7714c-7.1448 1.042599-13.728 1.609397-19.6846 1.609397-24.284 0-35.724-9.6642-35.724-35.050599v-88.972h-16.939V471h16.939v-28.066999h8.4526V471h46.5712v7.578998h-46.5712v88.207599c0 20.891002 8.775 28.098202 28.4804 28.098202zM2301.2966 419v21.6086h-8.814L2292.4748 419h8.8218zm-.1716 52v130h-8.45521V471h8.45521zm126.5108 43.003998l-.0234-.335402c-.7878-20.758399-17.329-36.711999-40.5808-36.711999-28.2984 0-46.3086 19.437599-46.3086 58.791199v.26c0 38.493001 18.8838 59.033001 46.553 58.960201 25.2642-.0728 39.4732-16.7414 40.3364-37.255398l.0234-.312h8.0236l-.0312.468001c-.8476 24.575201-17.9686 44.6056-48.1962 44.678399-33.8052.0728-55.549-23.223202-55.549-66.6172v-.26c0-43.235398 20.7168-66.289598 55.0706-66.289598 29.1954 0 48.0428 19.567599 48.6746 44.056999l.0312.566798h-8.0236zm125.94399-5.717397l-8.12239-.000012v-.26c0-20.225398-11.9392-31.07-37.3828-31.07-21.6632 0-35.9866 10.166002-35.9866 25.643801v.26c0 43.771002 83.7564 14.092003 83.7564 62.608005v.26c0 23.496199-19.0034 36.745801-47.3382 36.8186-31.2936.0728-48.2118-16.491802-48.2118-39.522602v-.4914l8.125.0078v.26c0 19.099601 14.378 32.318 40.0868 32.245201 22.8098-.075399 38.4982-10.355797 38.4982-28.932796v-.26c0-40.580801-83.7954-10.608001-83.7954-62.9928v-.26c0-20.714199 19.1126-33.144799 44.8656-33.144799 30.1548 0 45.50519 14.508001 45.50519 38.261601v.569401zM1597.6552 888.331l-16.2474-43.5708h-96.0934l-16.25 43.5708h-9.5004l68.2448-182.2314h11.1202l68.224 182.2314h-9.4978zm-109.2832-51.763399h89.9808L1533.3676 715.9224l-44.9956 120.645201zm229.5592-40.95l-8.1224-.000012v-.26c0-20.225398-11.9392-31.07-37.3828-31.07-21.6632 0-35.9866 10.166002-35.9866 25.643801v.26c0 43.771002 83.7564 14.092003 83.7564 62.608005v.26c0 23.496199-19.0034 36.745801-47.3382 36.8186-31.2936.0728-48.2118-16.491802-48.2118-39.522602v-.4914l8.125.0078v.26c0 19.099601 14.378 32.318 40.0868 32.245201 22.8098-.075399 38.4982-10.355797 38.4982-28.932796v-.26c0-40.580801-83.7954-10.608001-83.7954-62.9928v-.26c0-20.714199 19.1126-33.144799 44.8656-33.144799 30.1548 0 45.5052 14.508001 45.5052 38.261601v.569401zm119.86 0l-8.1224-.000012v-.26c0-20.225398-11.9392-31.07-37.3828-31.07-21.6632 0-35.9866 10.166002-35.9866 25.643801v.26c0 43.771002 83.7564 14.092003 83.7564 62.608005v.26c0 23.496199-19.0034 36.745801-47.3382 36.8186-31.2936.0728-48.2118-16.491802-48.2118-39.522602v-.4914l8.125.0078v.26c0 19.099601 14.378 32.318 40.0868 32.245201 22.8098-.075399 38.4982-10.355797 38.4982-28.932796v-.26c0-40.580801-83.7954-10.608001-83.7954-62.9928v-.26c0-20.714199 19.1126-33.144799 44.8656-33.144799 30.1548 0 45.5052 14.508001 45.5052 38.261601v.569401zm81.016 94.3514c-32.916 0-53.5548-22.541999-53.5548-66.69v-.26c0-44.031002 20.6388-66.3078 53.5548-66.3078 32.968 0 53.6458 22.146798 53.6458 66.3078v.26c0 44.148001-20.6778 66.69-53.6458 66.69zm0-7.578995c27.2844.031199 44.8058-19.749601 44.8058-59.111001v-.26c0-39.2236-17.5214-58.7314-44.8058-58.7314-27.2324 0-44.7148 19.5078-44.7148 58.7314v.26c0 39.306798 17.4824 59.079799 44.7148 59.110997v.000004zm175.24-81.055008l-.0234-.335402c-.7878-20.758399-17.329-36.711999-40.5808-36.711999-28.29839 0-46.3086 19.437599-46.3086 58.791199v.26c0 38.493001 18.88381 59.033001 46.55301 58.960201 25.26419-.0728 39.47319-16.7414 40.3364-37.255398l.02339-.312h8.0236l-.03119.468001c-.8476 24.575201-17.9686 44.6056-48.1962 44.678399-33.8052.0728-55.54901-23.223202-55.54901-66.6172v-.26c0-43.235398 20.7168-66.289598 55.0706-66.289598 29.1954 0 48.0428 19.567599 48.6746 44.056999l.0312.566798h-8.0236zM2141.128 706.331v21.6086h-8.814l-.0078-21.6086h8.8218zm-.1716 52v130h-8.4552v-130h8.4552zm80.4934-1.544401l-.00001-.002602c28.5246 0 44.941 9.4328 44.941 39.964598l-.0078 91.579798h-7.7142v-22.216999c-7.462 15.524602-24.35679 23.647003-44.3976 23.579405-27.38839-.1092-43.44339-13.6292-43.44339-36.425998v-.26c0-22.726601 16.6842-32.702799 40.5938-34.4058l46.514-3.226601v-18.628999c0-25.550201-12.857-32.4558-36.3922-32.4558-25.4514 0-38.2668 11.3828-38.2668 33.589401v.7436h-7.8234v-.7436c0-27.227201 16.1252-41.090403 45.9966-41.090403zm-5.75381 125.312197c22.21179.091001 42.2214-11.697398 42.2396-35.898198v-24.0136l-45.734 3.0836c-19.565 1.326001-32.5182 9.924203-32.5182 27.131001v.26c0 18.7278 12.818 29.325399 36.0126 29.437197zm125.73601.117003c5.798 0 11.8586-.616199 18.4756-1.663999v7.7714c-7.1448 1.042599-13.728 1.609397-19.6846 1.609397-24.284 0-35.724-9.6642-35.724-35.050599v-88.972h-16.939V758.331h16.939v-28.066999h8.4526V758.331h46.5712v7.578998h-46.5712v88.207599c0 20.891002 8.775 28.098202 28.4804 28.098202zM2396.188 706.331v21.6086h-8.814l-.0078-21.6086h8.8218zm-.1716 52v130h-8.4552v-130h8.4552zm84.3908 131.638001c-32.916 0-53.5548-22.541999-53.5548-66.69v-.26c0-44.031002 20.6388-66.3078 53.5548-66.3078 32.968 0 53.6458 22.146798 53.6458 66.3078v.26c0 44.148001-20.6778 66.69-53.6458 66.69zm0-7.578995c27.2844.031199 44.8058-19.749601 44.8058-59.111001v-.26c0-39.2236-17.5214-58.7314-44.8058-58.7314-27.2324 0-44.7148 19.5078-44.7148 58.7314v.26c0 39.306798 17.4824 59.079799 44.7148 59.110997v.000004zm138.5358-125.512401c28.67021 0 43.84381 13.465398 43.84381 43.568198v87.885201h-8.45521v-87.508202c0-25.2122-11.466-36.444199-35.75-36.444199-26.156 0-45.1906 16.288998-45.227 45.3336v7.168202h-.0182v71.450599h-8.4552v-130h7.2228v27.4664c7.7974-18.587402 25.1862-28.919803 46.839-28.919803v.000004zm192.4442 133.091396c-32.916 0-53.5548-22.541999-53.5548-66.69v-.26c0-44.031002 20.6388-66.3078 53.5548-66.3078 32.968 0 53.6458 22.146798 53.6458 66.3078v.26c0 44.148001-20.6778 66.69-53.6458 66.69zm0-7.578995c27.2844.031199 44.8058-19.749601 44.8058-59.111001v-.26c0-39.2236-17.5214-58.7314-44.8058-58.7314-27.2324 0-44.7148 19.5078-44.7148 58.7314v.26c0 39.306798 17.4824 59.079799 44.7148 59.110997v.000004zM2944.0782 758.331l.00001 7.578998h-35.048V888.331h-8.45521V765.909998h-17.2796V758.331h17.2796v-20.3242c0-23.927799 11.21381-33.274798 30.60981-33.274798 3.55679 0 7.35799.4394 11.40359 1.315599v7.469799c-3.5438-.876199-6.903-1.3364-10.0516-1.3364-14.638 0-23.5066 6.616999-23.5066 26.4342v19.7158h35.048zm169.5226 36.147804c27.5652 5.1272 40.1986 21.847799 40.1986 43.739799v.26c0 29.723201-19.1932 49.852401-59.5426 49.852401h-57.4002v-182h52.1196c39.5486 0 59.436 17.950398 59.436 44.350796v.26c0 21.130202-11.2918 37.3256-34.8114 43.537v.000004zm-23.9304-79.952599h-43.667v76.4972h43.667c33.0408 0 49.3636-15.8158 49.3636-39.311999v-.26c0-22.021999-16.3228-36.925201-49.3636-36.925201zm54.6728 123.952402v-.259997c0-23.1244-15.7742-38.909002-50.0864-38.909002h-48.2534v80.826199h48.2534c34.3122 0 50.0864-16.642599 50.0864-41.6572zm92.1076-81.562012c4.3446 0 8.1094.291199 11.5882.894401v7.5478c-3.4346-.673399-7.2436-1.0114-11.4842-1.0114-24.8144 0-40.0972 20.420398-40.5184 49.358399v74.625201h-8.4552v-130h7.2228v32.6872c5.4756-20.896198 19.6508-34.101597 41.6468-34.101597v-.000004zM3284.088 706.331v21.6086h-8.814l-.0078-21.6086h8.8218zm-.1716 52v130h-8.4552v-130h8.4552zm76.9756 123.884799c5.798 0 11.8586-.616199 18.4756-1.663999v7.7714c-7.1448 1.042599-13.728 1.609397-19.6846 1.609397-24.284 0-35.724-9.6642-35.724-35.050599v-88.972h-16.939V758.331h16.939v-28.066999h8.4526V758.331h46.5712v7.578998h-46.5712v88.207599c0 20.891002 8.775 28.098202 28.4804 28.098202zm90.8778-125.4292l-.00001-.002602c28.5246 0 44.941 9.4328 44.941 39.964598l-.0078 91.579798h-7.7142v-22.216999c-7.462 15.524602-24.35679 23.647003-44.3976 23.579405-27.38839-.1092-43.44339-13.6292-43.44339-36.425998v-.26c0-22.726601 16.6842-32.702799 40.5938-34.4058l46.514-3.226601v-18.628999c0-25.550201-12.857-32.4558-36.3922-32.4558-25.4514 0-38.2668 11.3828-38.2668 33.589401v.7436h-7.8234v-.7436c0-27.227201 16.1252-41.090403 45.9966-41.090403zm-5.75381 125.312197c22.21179.091001 42.2214-11.697398 42.2396-35.898198v-24.0136l-45.734 3.0836c-19.565 1.326001-32.5182 9.924203-32.5182 27.131001v.26c0 18.7278 12.818 29.325399 36.0126 29.437197zM3539.928 706.331v21.6086h-8.814l-.0078-21.6086h8.8218zm-.1716 52v130h-8.4552v-130h8.4552zm89.8066-1.453395c28.67021 0 43.84381 13.465398 43.84381 43.568198v87.885201h-8.45521v-87.508202c0-25.2122-11.466-36.444199-35.75-36.444199-26.156 0-45.1906 16.288998-45.227 45.3336v7.168202h-.0182v71.450599h-8.4552v-130h7.2228v27.4664c7.7974-18.587402 25.1862-28.919803 46.839-28.919803v.000004z"/>
  </g>
</svg>
